<?xml version="1.0" encoding="UTF-8" standalone="no"?>
<!-- Generator: Adobe Illustrator 19.0.0, SVG Export Plug-In . SVG Version: 6.00 Build 0)  -->

<svg
   xmlns:dc="http://purl.org/dc/elements/1.1/"
   xmlns:cc="http://creativecommons.org/ns#"
   xmlns:rdf="http://www.w3.org/1999/02/22-rdf-syntax-ns#"
   xmlns:svg="http://www.w3.org/2000/svg"
   xmlns="http://www.w3.org/2000/svg"
   xmlns:sodipodi="http://sodipodi.sourceforge.net/DTD/sodipodi-0.dtd"
   xmlns:inkscape="http://www.inkscape.org/namespaces/inkscape"
   version="1.1"
   id="Layer_1"
   x="0px"
   y="0px"
   viewBox="0 0 512 512"
   style="enable-background:new 0 0 512 512;"
   xml:space="preserve"
   sodipodi:docname="flame.svg"
   inkscape:version="0.92.1 r15371"><metadata
     id="metadata5087"><rdf:RDF><cc:Work
         rdf:about=""><dc:format>image/svg+xml</dc:format><dc:type
           rdf:resource="http://purl.org/dc/dcmitype/StillImage" /><dc:title /></cc:Work></rdf:RDF></metadata><defs
     id="defs5085" /><sodipodi:namedview
     pagecolor="#ffffff"
     bordercolor="#666666"
     borderopacity="1"
     objecttolerance="10"
     gridtolerance="10"
     guidetolerance="10"
     inkscape:pageopacity="0"
     inkscape:pageshadow="2"
     inkscape:window-width="1920"
     inkscape:window-height="1017"
     id="namedview5083"
     showgrid="false"
     inkscape:zoom="0.4609375"
     inkscape:cx="-96.542373"
     inkscape:cy="256"
     inkscape:window-x="1912"
     inkscape:window-y="-8"
     inkscape:window-maximized="1"
     inkscape:current-layer="Layer_1" /><path
     style="fill:#ffb446;stroke-width:0.66269296"
     d="m 155.67927,313.82776 c 0,59.12447 46.37235,107.05359 103.57497,107.05359 v 0 c 57.20263,0 103.57496,-47.92912 103.57496,-107.05359 0,-59.47414 -28.77079,-107.05359 -9.46728,-148.68535 0,0 -30.81233,5.94768 -48.07429,53.52645 0,0 -57.54158,-59.47414 -33.50052,-142.737657 0,0 -58.56561,23.78938 -52.44094,101.105897 5.2525,66.29902 -6.12467,77.31652 -6.12467,77.31652 0,-53.52646 -40.48886,-77.31652 -40.48886,-77.31652 11.71742,65.42182 -17.05337,83.2642 -17.05337,136.79066 z"
     id="path5046"
     inkscape:connector-curvature="0" /><path
     style="fill:#ffdc64;stroke-width:0.66269296"
     d="m 334.01734,339.18087 c 0,44.5288 -33.26519,82.54264 -76.33924,81.68364 -40.53645,-0.80713 -70.69631,-32.68532 -67.47296,-74.32651 1.43859,-18.5855 15.10436,-48.69448 37.40175,-79.17467 l 14.86516,9.29275 c -0.48042,-37.66619 16.78219,-87.72361 16.78219,-87.72361 11.33936,52.74155 74.7631,66.4122 74.7631,150.2484 z"
     id="path5048"
     inkscape:connector-curvature="0" /><path
     style="fill:#ffffff;stroke-width:0.66269296"
     d="m 230.48345,301.93307 c -5.75442,35.68476 -17.26261,48.67628 -17.26261,71.36884 0,23.79005 20.61044,47.57944 46.0334,47.57944 v 0 c 25.60676,0 46.10379,-21.62469 46.03273,-48.09149 -0.19228,-71.08385 -40.27832,-106.54087 -40.27832,-106.54087 5.75443,35.68475 -11.50817,53.52645 -11.50817,53.52645 -7.19107,-11.14753 -23.01703,-17.84237 -23.01703,-17.84237 z"
     id="path5050"
     inkscape:connector-curvature="0" /><g
     id="g5052" /><g
     id="g5054" /><g
     id="g5056" /><g
     id="g5058" /><g
     id="g5060" /><g
     id="g5062" /><g
     id="g5064" /><g
     id="g5066" /><g
     id="g5068" /><g
     id="g5070" /><g
     id="g5072" /><g
     id="g5074" /><g
     id="g5076" /><g
     id="g5078" /><g
     id="g5080" /><rect
     style="opacity:1;vector-effect:none;fill:none;fill-opacity:1;stroke:#ffb446;stroke-width:47.8237648;stroke-linecap:butt;stroke-linejoin:bevel;stroke-miterlimit:4;stroke-dasharray:none;stroke-dashoffset:0;stroke-opacity:1"
     id="rect5632"
     width="467.9165"
     height="466.57245"
     x="21.417408"
     y="24.931002" /></svg>