<?xml version="1.0" encoding="UTF-8" standalone="no"?>
<svg
   xmlns:dc="http://purl.org/dc/elements/1.1/"
   xmlns:cc="http://creativecommons.org/ns#"
   xmlns:rdf="http://www.w3.org/1999/02/22-rdf-syntax-ns#"
   xmlns:svg="http://www.w3.org/2000/svg"
   xmlns="http://www.w3.org/2000/svg"
   xmlns:sodipodi="http://sodipodi.sourceforge.net/DTD/sodipodi-0.dtd"
   xmlns:inkscape="http://www.inkscape.org/namespaces/inkscape"
   id="Capa_1"
   enable-background="new 0 0 512 512"
   height="512"
   viewBox="0 0 512 512"
   width="512"
   version="1.1"
   sodipodi:docname="FShape-ring.svg"
   inkscape:version="0.92.1 r15371">
  <metadata
     id="metadata17">
    <rdf:RDF>
      <cc:Work
         rdf:about="">
        <dc:format>image/svg+xml</dc:format>
        <dc:type
           rdf:resource="http://purl.org/dc/dcmitype/StillImage" />
      </cc:Work>
    </rdf:RDF>
  </metadata>
  <defs
     id="defs15" />
  <sodipodi:namedview
     pagecolor="#ffffff"
     bordercolor="#666666"
     borderopacity="1"
     objecttolerance="10"
     gridtolerance="10"
     guidetolerance="10"
     inkscape:pageopacity="0"
     inkscape:pageshadow="2"
     inkscape:window-width="1920"
     inkscape:window-height="1017"
     id="namedview13"
     showgrid="false"
     inkscape:zoom="0.4609375"
     inkscape:cx="256"
     inkscape:cy="256"
     inkscape:window-x="-8"
     inkscape:window-y="-8"
     inkscape:window-maximized="1"
     inkscape:current-layer="Capa_1" />
  <g
     id="g10"
     style="fill:#0dcaf0;fill-opacity:1">
    <g
       id="g4"
       style="fill:#0dcaf0;fill-opacity:1">
      <path
         d="m256 512c-140.959 0-256-115.049-256-256 0-140.959 115.049-256 256-256 140.959 0 256 115.049 256 256 0 140.959-115.049 256-256 256zm0-482c-124.617 0-226 101.383-226 226s101.383 226 226 226 226-101.383 226-226-101.383-226-226-226z"
         id="path2"
         style="fill:#0dcaf0;fill-opacity:1" />
    </g>
    <g
       id="g8"
       style="fill:#0dcaf0;fill-opacity:1">
      <path
         d="m256 452c-107.653 0-196-88.367-196-196 0-107.653 88.368-196 196-196 107.653 0 196 88.367 196 196 0 107.653-88.368 196-196 196zm0-362c-91.533 0-166 74.467-166 166s74.467 166 166 166 166-74.467 166-166-74.467-166-166-166z"
         id="path6"
         style="fill:#0dcaf0;fill-opacity:1" />
    </g>
  </g>
</svg>
