<?xml version="1.0" encoding="UTF-8" standalone="no"?>
<svg
   xmlns:dc="http://purl.org/dc/elements/1.1/"
   xmlns:cc="http://creativecommons.org/ns#"
   xmlns:rdf="http://www.w3.org/1999/02/22-rdf-syntax-ns#"
   xmlns:svg="http://www.w3.org/2000/svg"
   xmlns="http://www.w3.org/2000/svg"
   xmlns:sodipodi="http://sodipodi.sourceforge.net/DTD/sodipodi-0.dtd"
   xmlns:inkscape="http://www.inkscape.org/namespaces/inkscape"
   version="1.1"
   width="512"
   height="512"
   x="0"
   y="0"
   viewBox="0 0 512 512"
   style="enable-background:new 0 0 512 512"
   xml:space="preserve"
   class=""
   id="svg4506"
   sodipodi:docname="confirm.svg"
   inkscape:version="0.92.1 r15371"><metadata
     id="metadata4512"><rdf:RDF><cc:Work
         rdf:about=""><dc:format>image/svg+xml</dc:format><dc:type
           rdf:resource="http://purl.org/dc/dcmitype/StillImage" /><dc:title /></cc:Work></rdf:RDF></metadata><defs
     id="defs4510" /><sodipodi:namedview
     pagecolor="#ffffff"
     bordercolor="#666666"
     borderopacity="1"
     objecttolerance="10"
     gridtolerance="10"
     guidetolerance="10"
     inkscape:pageopacity="0"
     inkscape:pageshadow="2"
     inkscape:window-width="1920"
     inkscape:window-height="1017"
     id="namedview4508"
     showgrid="false"
     inkscape:zoom="0.65186406"
     inkscape:cx="51.494835"
     inkscape:cy="32.330129"
     inkscape:window-x="-8"
     inkscape:window-y="-8"
     inkscape:window-maximized="1"
     inkscape:current-layer="g4504" /><g
     id="g4504"><path
       d="m459.407 132.927-128.534-128.533c-2.813-2.814-6.629-4.394-10.607-4.394h-216.899c-30.42 0-55.167 24.748-55.167 55.167v401.666c0 30.419 24.747 55.167 55.167 55.167h305.267c30.419 0 55.167-24.748 55.167-55.167v-313.3c-.001-3.978-1.581-7.794-4.394-10.606zm-124.141-81.714 77.321 77.32h-52.154c-13.877 0-25.167-11.289-25.167-25.166zm73.367 430.787h-305.266c-13.877 0-25.167-11.29-25.167-25.167v-401.666c0-13.877 11.29-25.167 25.167-25.167h201.899v73.367c0 30.419 24.748 55.166 55.167 55.166h73.367v298.3c0 13.877-11.29 25.167-25.167 25.167z"
       fill="#5a7ae1"
       data-original="#000000"
       style=""
       class=""
       id="path4498" /><path
       style="fill:none;stroke:#5a7ae1;stroke-width:54.9514122px;stroke-linecap:butt;stroke-linejoin:miter;stroke-opacity:1"
       d="m 158.08114,280.95368 67.39174,80.10141 71.30742,-107.66103 10.73783,-15.56928 17.35593,-27.66102"
       id="path4555"
       inkscape:connector-curvature="0"
       sodipodi:nodetypes="ccccc" /></g></svg>