<?xml version="1.0" encoding="UTF-8" standalone="no"?>
<!-- Generator: Adobe Illustrator 19.0.0, SVG Export Plug-In . SVG Version: 6.00 Build 0)  -->

<svg
   xmlns:dc="http://purl.org/dc/elements/1.1/"
   xmlns:cc="http://creativecommons.org/ns#"
   xmlns:rdf="http://www.w3.org/1999/02/22-rdf-syntax-ns#"
   xmlns:svg="http://www.w3.org/2000/svg"
   xmlns="http://www.w3.org/2000/svg"
   xmlns:sodipodi="http://sodipodi.sourceforge.net/DTD/sodipodi-0.dtd"
   xmlns:inkscape="http://www.inkscape.org/namespaces/inkscape"
   version="1.1"
   id="Capa_1"
   x="0px"
   y="0px"
   viewBox="0 0 487.3 487.3"
   style="enable-background:new 0 0 487.3 487.3;"
   xml:space="preserve"
   sodipodi:docname="injectlist.svg"
   inkscape:version="0.92.1 r15371"><metadata
     id="metadata43"><rdf:RDF><cc:Work
         rdf:about=""><dc:format>image/svg+xml</dc:format><dc:type
           rdf:resource="http://purl.org/dc/dcmitype/StillImage" /><dc:title /></cc:Work></rdf:RDF></metadata><defs
     id="defs41" /><sodipodi:namedview
     pagecolor="#ffffff"
     bordercolor="#666666"
     borderopacity="1"
     objecttolerance="10"
     gridtolerance="10"
     guidetolerance="10"
     inkscape:pageopacity="0"
     inkscape:pageshadow="2"
     inkscape:window-width="1920"
     inkscape:window-height="1017"
     id="namedview39"
     showgrid="false"
     inkscape:zoom="1.3698108"
     inkscape:cx="130.75828"
     inkscape:cy="230.90548"
     inkscape:window-x="1912"
     inkscape:window-y="-8"
     inkscape:window-maximized="1"
     inkscape:current-layer="Capa_1"
     showguides="true"
     inkscape:guide-bbox="true"><sodipodi:guide
       position="262.81002,349.68333"
       orientation="1,0"
       id="guide5627"
       inkscape:locked="false" /><sodipodi:guide
       position="81.033089,141.6254"
       orientation="0,1"
       id="guide5629"
       inkscape:locked="false" /></sodipodi:namedview><g
     id="g6"
     style="fill:#5a7ae1;fill-opacity:1"
     transform="matrix(0.56406584,0,0,0.56286367,14.722118,-12.316189)"><g
       id="g4"
       style="fill:#5a7ae1;fill-opacity:1"><path
         d="m 487.2,69.7 c 0,12.9 -10.5,23.4 -23.4,23.4 h -322 c -12.9,0 -23.4,-10.5 -23.4,-23.4 0,-12.9 10.5,-23.4 23.4,-23.4 h 322.1 c 12.9,0.1 23.3,10.5 23.3,23.4 z m -23.3,92.6 H 141.8 c -12.9,0 -23.4,10.5 -23.4,23.4 0,12.9 10.5,23.4 23.4,23.4 h 322.1 c 12.9,0 23.4,-10.5 23.4,-23.4 -0.1,-12.9 -10.5,-23.4 -23.4,-23.4 z m 0,116 H 141.8 c -12.9,0 -23.4,10.5 -23.4,23.4 0,12.9 10.5,23.4 23.4,23.4 h 322.1 c 12.9,0 23.4,-10.5 23.4,-23.4 -0.1,-12.9 -10.5,-23.4 -23.4,-23.4 z m 0,116 H 141.8 c -12.9,0 -23.4,10.5 -23.4,23.4 0,12.9 10.5,23.4 23.4,23.4 h 322.1 c 12.9,0 23.4,-10.5 23.4,-23.4 -0.1,-12.9 -10.5,-23.4 -23.4,-23.4 z M 38.9,30.8 C 17.4,30.8 0,48.2 0,69.7 c 0,21.5 17.4,39 38.9,39 21.5,0 38.9,-17.5 38.9,-39 0,-21.5 -17.4,-38.9 -38.9,-38.9 z m 0,116 C 17.4,146.8 0,164.2 0,185.7 c 0,21.5 17.4,38.9 38.9,38.9 21.5,0 38.9,-17.4 38.9,-38.9 0,-21.5 -17.4,-38.9 -38.9,-38.9 z m 0,116 C 17.4,262.8 0,280.2 0,301.7 c 0,21.5 17.4,38.9 38.9,38.9 21.5,0 38.9,-17.4 38.9,-38.9 0,-21.5 -17.4,-38.9 -38.9,-38.9 z m 0,115.9 C 17.4,378.7 0,396.1 0,417.6 c 0,21.5 17.4,38.9 38.9,38.9 21.5,0 38.9,-17.4 38.9,-38.9 0,-21.4 -17.4,-38.9 -38.9,-38.9 z"
         id="path2"
         style="fill:#5a7ae1;fill-opacity:1"
         inkscape:connector-curvature="0" /></g></g><g
     id="g8" /><g
     id="g10" /><g
     id="g12" /><g
     id="g14" /><g
     id="g16" /><g
     id="g18" /><g
     id="g20" /><g
     id="g22" /><g
     id="g24" /><g
     id="g26" /><g
     id="g28" /><g
     id="g30" /><g
     id="g32" /><g
     id="g34" /><g
     id="g36" /><rect
     style="opacity:1;vector-effect:none;fill:none;fill-opacity:1;stroke:#5a7ae1;stroke-width:33.52854538;stroke-linecap:butt;stroke-linejoin:round;stroke-miterlimit:4;stroke-dasharray:none;stroke-dashoffset:0;stroke-opacity:1"
     id="rect4502"
     width="213.33368"
     height="183.14087"
     x="41.893814"
     y="289.51059" /><path
     style="fill:#3de11e;fill-opacity:0.93367345;stroke:#000000;stroke-width:1.09804595px;stroke-linecap:butt;stroke-linejoin:miter;stroke-opacity:1"
     d="M 380.56301,12.985367 348.73405,335.36857 h -68.50093 l 100.70011,139.63339 106.38458,-139.63339 -74.96516,1.60927 z"
     id="path4520"
     inkscape:connector-curvature="0"
     sodipodi:nodetypes="ccccccc" /><path
     style="fill:none;stroke:#5a7ae1;stroke-width:35.16569901px;stroke-linecap:butt;stroke-linejoin:miter;stroke-opacity:1"
     d="m 87.530656,369.62539 40.683694,54.22083 55.54948,-84.19797 -5.34332,1.36553"
     id="path4555-7"
     inkscape:connector-curvature="0" /></svg>