<svg xmlns="http://www.w3.org/2000/svg" data-name="Layer 1" viewBox="0 0 80 100" x="0px" y="0px"><title>web-browser-search-seo-parser-Parsing-syntax_analysis</title><path d="M36.083,63H67a6.007,6.007,0,0,0,6-6V23a6.007,6.007,0,0,0-6-6H13a6.007,6.007,0,0,0-6,6V57a6.007,6.007,0,0,0,6,6,2,2,0,0,0,0-4,2,2,0,0,1-2-2V31H69V57a2,2,0,0,1-2,2H36.083a2,2,0,0,0,0,4ZM11,27V23a2,2,0,0,1,2-2H67a2,2,0,0,1,2,2v4Z"/><circle cx="14" cy="24" r="2"/><circle cx="19" cy="24" r="2"/><circle cx="24" cy="24" r="2"/><path d="M16,64.083a4.915,4.915,0,0,0,8.389,3.479L35.744,56.206a12.045,12.045,0,1,0-6.95-6.95L17.438,60.61A4.877,4.877,0,0,0,16,64.083ZM40,37a8.014,8.014,0,1,1-4.647,14.5c-.079-.057-.157-.115-.233-.175a8.012,8.012,0,0,1-.705-.608q-.066-.064-.13-.13a8.012,8.012,0,0,1-.608-.705c-.059-.077-.118-.154-.175-.233a8.069,8.069,0,0,1-.548-.866A8,8,0,0,1,40,37ZM20.267,63.439,30.894,52.813c.057.067.127.121.186.186A12.078,12.078,0,0,0,32,53.92c.065.059.119.129.186.186L21.56,64.733a.9.9,0,0,1-.643.267.915.915,0,0,1-.65-1.561Z"/><text x="0" y="95" fill="#000000" font-size="5px" font-weight="bold" font-family="'Helvetica Neue', Helvetica, Arial-Unicode, Arial, Sans-serif">Created by Timofei Rostilov</text><text x="0" y="100" fill="#000000" font-size="5px" font-weight="bold" font-family="'Helvetica Neue', Helvetica, Arial-Unicode, Arial, Sans-serif">from the Noun Project</text></svg>