<?xml version="1.0" encoding="UTF-8" standalone="no"?>
<svg
   xmlns:dc="http://purl.org/dc/elements/1.1/"
   xmlns:cc="http://creativecommons.org/ns#"
   xmlns:rdf="http://www.w3.org/1999/02/22-rdf-syntax-ns#"
   xmlns:svg="http://www.w3.org/2000/svg"
   xmlns="http://www.w3.org/2000/svg"
   xmlns:sodipodi="http://sodipodi.sourceforge.net/DTD/sodipodi-0.dtd"
   xmlns:inkscape="http://www.inkscape.org/namespaces/inkscape"
   id="_x31__px"
   enable-background="new 0 0 24 24"
   height="512"
   viewBox="0 0 24 24"
   width="512"
   version="1.1"
   sodipodi:docname="printer.svg"
   inkscape:version="0.92.1 r15371">
  <metadata
     id="metadata19">
    <rdf:RDF>
      <cc:Work
         rdf:about="">
        <dc:format>image/svg+xml</dc:format>
        <dc:type
           rdf:resource="http://purl.org/dc/dcmitype/StillImage" />
      </cc:Work>
    </rdf:RDF>
  </metadata>
  <defs
     id="defs17" />
  <sodipodi:namedview
     pagecolor="#ffffff"
     bordercolor="#666666"
     borderopacity="1"
     objecttolerance="10"
     gridtolerance="10"
     guidetolerance="10"
     inkscape:pageopacity="0"
     inkscape:pageshadow="2"
     inkscape:window-width="1920"
     inkscape:window-height="1017"
     id="namedview15"
     showgrid="false"
     inkscape:zoom="0.4609375"
     inkscape:cx="-96.542373"
     inkscape:cy="256"
     inkscape:window-x="1912"
     inkscape:window-y="-8"
     inkscape:window-maximized="1"
     inkscape:current-layer="_x31__px" />
  <path
     d="m21.5 18h-3c-.276 0-.5-.224-.5-.5s.224-.5.5-.5h3c.827 0 1.5-.673 1.5-1.5v-7c0-.827-.673-1.5-1.5-1.5h-19c-.827 0-1.5.673-1.5 1.5v7c0 .827.673 1.5 1.5 1.5h3c.276 0 .5.224.5.5s-.224.5-.5.5h-3c-1.379 0-2.5-1.122-2.5-2.5v-7c0-1.378 1.121-2.5 2.5-2.5h19c1.379 0 2.5 1.122 2.5 2.5v7c0 1.378-1.121 2.5-2.5 2.5z"
     id="path2"
     style="stroke:#5a7ae1;stroke-opacity:1" />
  <path
     d="m14.5 21h-6c-.276 0-.5-.224-.5-.5s.224-.5.5-.5h6c.276 0 .5.224.5.5s-.224.5-.5.5z"
     id="path4"
     style="stroke:#5a7ae1;stroke-opacity:1" />
  <path
     d="m14.5 19h-6c-.276 0-.5-.224-.5-.5s.224-.5.5-.5h6c.276 0 .5.224.5.5s-.224.5-.5.5z"
     id="path6"
     style="stroke:#5a7ae1;stroke-opacity:1" />
  <path
     d="m10.5 17h-2c-.276 0-.5-.224-.5-.5s.224-.5.5-.5h2c.276 0 .5.224.5.5s-.224.5-.5.5z"
     id="path8"
     style="stroke:#5a7ae1;stroke-opacity:1" />
  <path
     d="m18.5 7c-.276 0-.5-.224-.5-.5v-4c0-.827-.673-1.5-1.5-1.5h-9c-.827 0-1.5.673-1.5 1.5v4c0 .276-.224.5-.5.5s-.5-.224-.5-.5v-4c0-1.378 1.121-2.5 2.5-2.5h9c1.379 0 2.5 1.122 2.5 2.5v4c0 .276-.224.5-.5.5z"
     id="path10"
     style="stroke:#5a7ae1;stroke-opacity:1" />
  <path
     d="m16.5 24h-9c-1.379 0-2.5-1.122-2.5-2.5v-8c0-.276.224-.5.5-.5h13c.276 0 .5.224.5.5v8c0 1.378-1.121 2.5-2.5 2.5zm-10.5-10v7.5c0 .827.673 1.5 1.5 1.5h9c.827 0 1.5-.673 1.5-1.5v-7.5z"
     id="path12"
     style="stroke:#5a7ae1;stroke-opacity:1" />
</svg>
