<?xml version="1.0" encoding="UTF-8" standalone="no"?>
<svg
   xmlns:dc="http://purl.org/dc/elements/1.1/"
   xmlns:cc="http://creativecommons.org/ns#"
   xmlns:rdf="http://www.w3.org/1999/02/22-rdf-syntax-ns#"
   xmlns:svg="http://www.w3.org/2000/svg"
   xmlns="http://www.w3.org/2000/svg"
   xmlns:sodipodi="http://sodipodi.sourceforge.net/DTD/sodipodi-0.dtd"
   xmlns:inkscape="http://www.inkscape.org/namespaces/inkscape"
   version="1.1"
   width="512"
   height="512"
   x="0"
   y="0"
   viewBox="0 0 512 512"
   style="enable-background:new 0 0 512 512"
   xml:space="preserve"
   class=""
   id="svg4506"
   sodipodi:docname="redit.svg"
   inkscape:version="0.92.1 r15371"><metadata
     id="metadata4512"><rdf:RDF><cc:Work
         rdf:about=""><dc:format>image/svg+xml</dc:format><dc:type
           rdf:resource="http://purl.org/dc/dcmitype/StillImage" /><dc:title></dc:title></cc:Work></rdf:RDF></metadata><defs
     id="defs4510" /><sodipodi:namedview
     pagecolor="#ffffff"
     bordercolor="#666666"
     borderopacity="1"
     objecttolerance="10"
     gridtolerance="10"
     guidetolerance="10"
     inkscape:pageopacity="0"
     inkscape:pageshadow="2"
     inkscape:window-width="1920"
     inkscape:window-height="1017"
     id="namedview4508"
     showgrid="false"
     inkscape:zoom="0.4609375"
     inkscape:cx="256"
     inkscape:cy="256"
     inkscape:window-x="-8"
     inkscape:window-y="-8"
     inkscape:window-maximized="1"
     inkscape:current-layer="g4504" /><g
     id="g4504"><path
       d="m459.407 132.927-128.534-128.533c-2.813-2.814-6.629-4.394-10.607-4.394h-216.899c-30.42 0-55.167 24.748-55.167 55.167v401.666c0 30.419 24.747 55.167 55.167 55.167h305.267c30.419 0 55.167-24.748 55.167-55.167v-313.3c-.001-3.978-1.581-7.794-4.394-10.606zm-124.141-81.714 77.321 77.32h-52.154c-13.877 0-25.167-11.289-25.167-25.166zm73.367 430.787h-305.266c-13.877 0-25.167-11.29-25.167-25.167v-401.666c0-13.877 11.29-25.167 25.167-25.167h201.899v73.367c0 30.419 24.748 55.166 55.167 55.166h73.367v298.3c0 13.877-11.29 25.167-25.167 25.167z"
       fill="#5a7ae1"
       data-original="#000000"
       style=""
       class=""
       id="path4498" /><path
       inkscape:connector-curvature="0"
       d="m 372.38618,222.00177 -34.61529,-32.66648 c -4.33252,-4.09268 -11.36467,-4.09268 -15.6972,0 l -31.28391,29.588 -120.92051,114.22344 c -1.00115,0.94572 -1.81241,2.06427 -2.36822,3.28719 l -25.87776,57.11172 c -1.81586,3.95245 -0.85269,8.53431 2.3337,11.54104 2.14727,2.02841 4.96082,3.07849 7.85032,3.07849 1.481,0 2.96199,-0.28046 4.40502,-0.83811 l 60.45853,-24.44523 c 1.29458,-0.52504 2.48214,-1.29466 3.47982,-2.23712 l 120.91707,-114.22344 31.32189,-29.55212 c 4.32907,-4.13182 4.32907,-10.77469 -0.003,-14.86738 z m -199.44445,155.73729 10.10807,-22.24399 13.43945,12.69548 z m 36.72805,-16.85664 -18.88013,-17.83498 108.92064,-102.89436 18.88358,17.83498 z m 119.39809,-112.79181 -18.88013,-17.83498 19.73282,-18.64047 18.88013,17.80236 z"
       id="path4"
       style="fill:#5a7ae1;fill-opacity:1;stroke:none;stroke-width:3.35529613;stroke-opacity:1" /></g></svg>